HIERARCHY
ROOT Hips
{
	OFFSET 0.00 0.00 0.00
	CHANNELS 6 Xposition Yposition Zposition Xrotation Yrotation Zrotation
	JOINT Spine
	{
		OFFSET 0.00000 5.89385 0.00000
		CHANNELS 3 Xrotation Yrotation Zrotation
		JOINT Head
		{
			OFFSET 0.00000 16.44715 0.00000
			CHANNELS 3 Xrotation Yrotation Zrotation
			End Site
			{
				OFFSET 0.00000 4.52755 0.00000
			}
		}
		JOINT LeftShoulder
		{
			OFFSET 0.00000 10.90038 0.00000
			CHANNELS 3 Xrotation Yrotation Zrotation
			JOINT LeftArm
			{
				OFFSET 8.21946 0.00000 0.00000
				CHANNELS 3 Xrotation Yrotation Zrotation
				JOINT LeftForeArm
				{
					OFFSET 11.09494 0.00000 0.00000
					CHANNELS 3 Yrotation Zrotation Xrotation
					JOINT LeftHand
					{
						OFFSET 9.10388 0.00000 0.00000
						CHANNELS 3 Xrotation Yrotation Zrotation
						JOINT LeftHandThumb1
						{
							OFFSET 0.00000 0.00000 0.00000
							CHANNELS 3 Xrotation Zrotation Yrotation
							End Site
							{
								OFFSET 0.00000 0.00000 3.93700
							}
						}
						End Site
						{
							OFFSET 3.93700 0.00000 0.00000
						}
					}
				}
			}
		}
		JOINT RightShoulder
		{
			OFFSET 0.00000 10.90038 0.00000
			CHANNELS 3 Xrotation Yrotation Zrotation
			JOINT RightArm
			{
				OFFSET -8.21946 0.00000 0.00000
				CHANNELS 3 Xrotation Yrotation Zrotation
				JOINT RightForeArm
				{
					OFFSET -11.09494 0.00000 0.00000
					CHANNELS 3 Yrotation Zrotation Xrotation
					JOINT RightHand
					{
						OFFSET -9.10388 0.00000 0.00000
						CHANNELS 3 Xrotation Yrotation Zrotation
						JOINT RightHandThumb1
						{
							OFFSET 0.00000 0.00000 0.00000
							CHANNELS 3 Xrotation Zrotation Yrotation
							End Site
							{
								OFFSET 0.00000 0.00000 3.93700
							}
						}
						End Site
						{
							OFFSET -3.93700 0.00000 0.00000
						}
					}
				}
			}
		}
	}
	JOINT LeftUpLeg
	{
		OFFSET 3.69794 0.00000 0.00000
		CHANNELS 3 Xrotation Yrotation Zrotation
		JOINT LeftLeg
		{
			OFFSET 0.00000 -16.18147 0.00000
			CHANNELS 3 Xrotation Yrotation Zrotation
			JOINT LeftFoot
			{
				OFFSET 0.00000 -16.50139 0.00000
				CHANNELS 3 Xrotation Yrotation Zrotation
				JOINT LeftToeBase
				{
					OFFSET 0.00000 -1.65857 6.18989
					CHANNELS 3 Xrotation Yrotation Zrotation
					End Site
					{
						OFFSET 0.00000 0.00000 2.95275
					}
				}
			}
		}
	}
	JOINT RightUpLeg
	{
		OFFSET -3.69794 0.00000 0.00000
		CHANNELS 3 Xrotation Yrotation Zrotation
		JOINT RightLeg
		{
			OFFSET 0.00000 -16.18147 0.00000
			CHANNELS 3 Xrotation Yrotation Zrotation
			JOINT RightFoot
			{
				OFFSET 0.00000 -16.50139 0.00000
				CHANNELS 3 Xrotation Yrotation Zrotation
				JOINT RightToeBase
				{
					OFFSET 0.00000 -1.65857 6.18989
					CHANNELS 3 Xrotation Yrotation Zrotation
					End Site
					{
						OFFSET 0.00000 0.00000 2.95275
					}
				}
			}
		}
	}
}
MOTION
Frames: 22
Frame Time: 0.008333
 4.7172 36.4186 -2.3957 89.8039 -68.5578 93.3319 -15.9918 3.5001 -1.4727 7.1980 11.2217 0.5092 8.9881 11.2527 27.2712 -40.8472 12.6140 -32.4536 -5.7147 0.0000 9.8136 2.1501 12.4975 -9.8427 33.1476 -0.0000 26.2537 38.2682 -30.6592 -10.0362 -70.2446 4.1747 37.3917 1.7279 -0.0000 -7.5197 -0.0819 0.8020 5.8284 32.8623 0.0000 -24.3270 -37.3327 22.2673 8.6035 30.3617 0.0000 0.0000 -7.4155 15.7359 -10.0147 -1.4768 0.0000 0.0000 -23.6452 -4.2427 -2.0670 10.3401 -0.0000 0.0000 -12.1218 -16.0053 9.4941 12.6930 -0.0000 0.0000
 4.7159 36.4173 -2.3790 89.4252 -68.5091 92.9158 -16.0719 3.5570 -1.4619 7.1512 11.2035 0.5468 9.0114 11.2258 27.2847 -40.7785 12.5383 -32.5113 -5.9343 0.0000 9.7513 2.1490 12.4872 -9.8454 33.1476 -0.0000 26.2537 38.4304 -30.6753 -9.8798 -70.0025 4.3225 37.4256 1.8568 -0.0000 -7.7075 -0.0871 0.8700 5.7164 32.8623 0.0000 -24.3270 -37.4096 22.7191 8.4982 30.3867 -0.0000 0.0000 -7.5946 16.0321 -9.8963 -1.1205 0.0000 0.0000 -23.6815 -4.3195 -2.0857 10.3407 -0.0000 0.0000 -12.1371 -16.0822 9.5184 12.7257 -0.0000 0.0000
 4.7145 36.4164 -2.3612 88.9516 -68.4507 92.3934 -16.1654 3.5262 -1.4369 7.1202 11.2406 0.5368 9.0271 11.2380 27.2630 -40.6999 12.4357 -32.5402 -6.1054 0.0000 9.7237 2.1415 12.4319 -9.8537 33.1476 -0.0000 26.2537 38.5180 -30.6670 -9.7966 -70.0183 4.2800 37.5075 1.9489 -0.0000 -7.4930 -0.0793 0.7924 5.7154 32.8623 0.0000 -24.3270 -37.5110 23.1853 8.3910 30.3930 0.0000 -0.0000 -7.7739 16.3676 -9.9256 -0.8374 -0.0000 0.0000 -23.7114 -4.4048 -2.1006 10.3197 -0.0000 -0.0000 -12.1444 -16.1848 9.5352 12.6954 -0.0000 0.0000
 4.7110 36.4153 -2.3409 88.5693 -68.3958 91.9635 -16.2525 3.5573 -1.4263 7.0772 11.2438 0.5639 9.0799 11.2466 27.2807 -40.6688 12.3750 -32.6068 -6.2922 0.0000 9.6590 2.1451 12.4143 -9.8836 33.1476 -0.0000 26.2537 38.6817 -30.6726 -9.6326 -69.9639 4.3474 37.5778 2.0147 -0.0000 -7.5286 -0.0765 0.7573 5.7700 32.8623 0.0000 -24.3270 -37.5679 23.6703 8.2948 30.3590 0.0000 -0.0000 -7.9993 16.5665 -9.8329 -0.7036 0.0000 0.0000 -23.7386 -4.4333 -2.1112 10.3087 -0.0000 0.0000 -12.1536 -16.3121 9.5634 12.7241 -0.0000 -0.0000
 4.7058 36.4136 -2.3176 88.1033 -68.3553 91.4430 -16.3315 3.5306 -1.3979 7.0460 11.3192 0.5496 9.1039 11.2509 27.2712 -40.5968 12.3094 -32.6523 -6.4544 0.0000 9.6497 2.1519 12.4008 -9.9250 33.1476 -0.0000 26.2537 38.7896 -30.6536 -9.5570 -69.7969 4.3774 37.6635 2.1602 -0.0000 -7.5927 -0.0830 0.8366 5.6647 32.8623 0.0000 -24.3270 -37.5884 24.1473 8.1708 30.2726 -0.0000 0.0000 -8.2355 16.7886 -9.7281 -0.5373 -0.0000 0.0000 -23.7497 -4.5273 -2.1334 10.3077 -0.0000 0.0000 -12.1665 -16.4074 9.6029 12.7032 0.0000 0.0000
 4.7001 36.4125 -2.2936 87.6953 -68.3154 90.9734 -16.4107 3.5438 -1.3638 7.0252 11.3535 0.5279 9.0949 11.2059 27.2735 -40.4988 12.2574 -32.6825 -6.5820 0.0000 9.6660 2.1508 12.2929 -10.0038 33.1476 -0.0000 26.2537 38.8739 -30.6491 -9.4704 -69.8340 4.3016 37.7710 2.2054 -0.0000 -7.3703 -0.0807 0.7932 5.8070 32.8623 0.0000 -24.3270 -37.6068 24.6782 8.0708 30.1600 -0.0000 -0.0000 -8.4005 16.9702 -9.6829 -0.4775 0.0000 0.0000 -23.7704 -4.6157 -2.1470 10.3295 -0.0000 -0.0000 -12.1687 -16.4722 9.6090 12.6176 -0.0000 -0.0000
 4.6906 36.4096 -2.2674 87.1134 -68.2781 90.3277 -16.4892 3.4944 -1.3412 7.0001 11.4091 0.5144 9.1368 11.2243 27.2695 -40.5148 12.1995 -32.7370 -6.7132 0.0000 9.7153 2.1714 12.3301 -10.0686 33.1476 -0.0000 26.2537 38.9451 -30.6246 -9.3867 -69.5625 4.3508 37.8489 2.3906 -0.0000 -7.4985 -0.0781 0.7725 5.7698 32.8623 0.0000 -24.3270 -37.5914 25.1452 7.9436 30.0252 -0.0000 -0.0000 -8.5104 17.1016 -9.6845 -0.4879 -0.0000 0.0000 -23.8632 -5.0823 -2.2124 10.4938 0.0000 0.0000 -12.2315 -16.2393 9.6519 12.5783 0.0000 -0.0000
 4.6828 36.4076 -2.2362 86.7821 -68.2387 89.9401 -16.5649 3.5171 -1.3138 6.9703 11.4755 0.4768 9.1539 11.2377 27.2548 -40.5083 12.1689 -32.7702 -6.8367 0.0000 9.7811 2.1928 12.2996 -10.1901 33.1476 -0.0000 26.2537 39.1042 -30.6257 -9.2462 -69.4403 4.4600 37.9657 2.4957 -0.0000 -7.6014 -0.0819 0.8087 5.7827 32.8623 0.0000 -24.3270 -37.5655 25.7175 7.8367 29.8530 -0.0000 -0.0000 -8.5864 17.2862 -9.5425 -0.3836 0.0000 0.0000 -23.9006 -5.1675 -2.2380 10.5464 -0.0000 0.0000 -12.2520 -16.3013 9.6945 12.5602 -0.0000 -0.0000
 4.6776 36.4065 -2.2054 86.3477 -68.1376 89.4223 -16.7091 3.4870 -1.2681 6.9303 11.5903 0.4492 9.1452 11.2499 27.2732 -40.4810 12.1819 -32.8345 -6.9633 0.0000 9.8597 2.1947 12.2519 -10.2367 33.1476 -0.0000 26.2537 39.2440 -30.6036 -9.1181 -69.1758 4.5887 38.0600 2.7005 -0.0000 -7.7275 -0.0766 0.7674 5.7022 32.8623 0.0000 -24.3270 -37.6038 26.1967 7.7242 29.6707 0.0000 0.0000 -8.6080 17.5335 -9.4221 -0.1490 0.0000 0.0000 -23.9700 -5.2144 -2.2393 10.5515 -0.0000 -0.0000 -12.2396 -16.4502 9.7505 12.5447 0.0000 -0.0000
 4.6701 36.4045 -2.1740 85.8712 -68.0735 88.8542 -16.8132 3.4512 -1.2164 6.9024 11.6595 0.4165 9.1749 11.2666 27.2621 -40.5234 12.1899 -32.8701 -7.0780 0.0000 9.9748 2.1867 12.1730 -10.2642 33.1476 -0.0000 26.2537 39.3395 -30.5984 -9.0244 -69.3054 4.4891 38.2204 2.6786 -0.0000 -7.5029 -0.0889 0.8942 5.6774 32.8623 0.0000 -24.3270 -37.5809 26.6369 7.6020 29.4547 -0.0000 0.0000 -8.5385 17.8445 -9.4639 -0.2801 0.0000 -0.0000 -24.0030 -5.2901 -2.2378 10.5725 -0.0000 0.0000 -12.2449 -16.5904 9.7588 12.5518 0.0000 -0.0000
 4.6645 36.4027 -2.1406 85.3454 -67.9766 88.2320 -16.9540 3.4112 -1.1733 6.8792 11.7089 0.4139 9.1643 11.2217 27.2956 -40.4754 12.2279 -32.9140 -7.1836 0.0000 9.9869 2.1954 12.1490 -10.3236 33.1476 -0.0000 26.2537 39.4384 -30.5859 -8.9110 -69.2334 4.5128 38.3502 2.7093 -0.0000 -7.4284 -0.0982 0.9717 5.7725 32.8623 0.0000 -24.3270 -37.5747 27.0000 7.4559 29.2200 0.0000 0.0000 -8.5029 18.2005 -9.2566 -0.2113 -0.0000 -0.0000 -24.0596 -5.3398 -2.2319 10.5815 0.0000 -0.0000 -12.2592 -16.7944 9.7486 12.5758 0.0000 -0.0000
 4.6577 36.4014 -2.1039 84.8875 -67.8714 87.6933 -17.1044 3.3882 -1.1557 6.8455 11.7820 0.4331 9.1636 11.2328 27.3239 -40.5215 12.2538 -32.9609 -7.2636 0.0000 10.0782 2.2150 12.1262 -10.4326 33.1476 -0.0000 26.2537 39.4974 -30.5389 -8.8263 -69.0666 4.5219 38.4655 2.7794 -0.0000 -7.3270 -0.0895 0.8914 5.7360 32.8623 0.0000 -24.3270 -37.5470 27.4041 7.3022 28.9450 0.0000 -0.0000 -8.4220 18.5351 -9.0199 -0.0865 -0.0000 -0.0000 -24.1298 -5.3805 -2.2456 10.5944 -0.0000 -0.0000 -12.2568 -16.9585 9.7618 12.5555 -0.0000 0.0000
 4.6499 36.3999 -2.0658 84.2833 -67.7493 86.9901 -17.2799 3.2934 -1.1178 6.8399 11.8538 0.4091 9.1774 11.2081 27.3434 -40.5048 12.3062 -32.9816 -7.3350 0.0000 10.1609 2.2324 12.0556 -10.5723 33.1476 -0.0000 26.2537 39.5930 -30.5280 -8.7055 -68.9517 4.6421 38.6088 2.7365 -0.0000 -7.2805 -0.0855 0.8395 5.8138 32.8623 0.0000 -24.3270 -37.5099 27.6942 7.1171 28.6451 0.0000 -0.0000 -8.2330 18.9275 -8.8632 0.0800 -0.0000 0.0000 -24.1895 -5.4821 -2.2592 10.5850 0.0000 -0.0000 -12.2607 -17.1186 9.7811 12.5543 0.0000 -0.0000
 4.6419 36.3980 -2.0263 83.8068 -67.6336 86.4114 -17.4388 3.2520 -1.0887 6.7836 11.9081 0.4468 9.1770 11.2106 27.3816 -40.4948 12.3105 -33.0247 -7.3632 0.0000 10.1814 2.2265 12.0316 -10.5653 33.1476 -0.0000 26.2537 39.6852 -30.5035 -8.6152 -68.9902 4.5509 38.7685 2.7259 -0.0000 -7.0569 -0.1005 0.9736 5.8912 32.8623 0.0000 -24.3270 -37.4722 28.0711 6.9737 28.3201 -0.0000 -0.0000 -7.9675 19.3655 -8.7114 0.2267 -0.0000 -0.0000 -24.2585 -5.5219 -2.2557 10.5989 -0.0000 -0.0000 -12.2708 -17.3140 9.7660 12.5637 0.0000 -0.0000
 4.6283 36.3950 -1.9849 83.1426 -67.5459 85.6377 -17.5725 3.1292 -1.0531 6.7501 11.9986 0.4609 9.1957 11.2299 27.3850 -40.5114 12.2886 -33.0398 -7.3584 0.0000 10.2322 2.2277 11.9582 -10.6332 33.1476 -0.0000 26.2537 39.8435 -30.4979 -8.4430 -69.0173 4.6115 38.9177 2.7030 -0.0000 -6.9759 -0.0836 0.8186 5.8304 32.8623 0.0000 -24.3270 -37.3732 28.4051 6.7936 27.9677 -0.0000 0.0000 -7.5868 19.7143 -8.4896 0.4055 0.0000 -0.0000 -24.2473 -5.6480 -2.2630 10.5629 0.0000 -0.0000 -12.2838 -17.5081 9.7795 12.5817 0.0000 -0.0000
 4.6160 36.3929 -1.9418 82.5147 -67.4240 84.8849 -17.7492 3.0318 -1.0041 6.7322 12.0585 0.4677 9.1845 11.1982 27.4212 -40.4579 12.2988 -33.0693 -7.3715 0.0000 10.3073 2.2370 11.8911 -10.7347 33.1476 -0.0000 26.2537 39.9320 -30.4786 -8.3587 -68.9181 4.5830 39.0635 2.7253 -0.0000 -6.8990 -0.0855 0.8188 5.9633 32.8623 0.0000 -24.3270 -37.3007 28.7841 6.6236 27.5585 0.0000 0.0000 -7.0276 20.0460 -8.2393 0.4539 0.0000 0.0000 -24.2760 -5.7981 -2.2593 10.5390 -0.0000 0.0000 -12.2814 -17.6729 9.7872 12.5456 0.0000 -0.0000
 4.6024 36.3894 -1.8961 81.8519 -67.2861 84.0969 -17.9386 2.9226 -0.9645 6.7000 12.1105 0.4874 9.1035 11.1656 27.4498 -40.3576 12.2170 -33.0878 -7.3230 0.0000 10.3951 2.2426 11.9955 -10.6707 33.1476 -0.0000 26.2537 40.0906 -30.4743 -8.2002 -68.9301 4.5746 39.1986 2.7124 -0.0000 -6.8325 -0.0877 0.8312 6.0205 32.8623 0.0000 -24.3270 -37.2423 29.1877 6.4487 27.1337 -0.0000 -0.0000 -6.5013 20.3903 -7.9609 1.1925 -0.0000 0.0000 -24.3202 -5.9138 -2.2589 10.5392 0.0000 -0.0000 -12.2974 -17.9056 9.8208 12.4969 0.0000 -0.0000
 4.5859 36.3861 -1.8456 81.2326 -67.1757 83.3649 -18.0996 2.8403 -0.9401 6.6582 12.1606 0.5235 9.1079 11.1530 27.4708 -40.3464 12.1848 -33.0839 -7.2993 0.0000 10.5357 2.2541 11.8768 -10.8275 33.1476 -0.0000 26.2537 40.1562 -30.4430 -8.0963 -68.7012 4.6334 39.3127 2.7511 -0.0000 -6.9389 -0.0740 0.7061 5.9789 32.8623 0.0000 -24.3270 -37.0797 29.5001 6.2275 26.6803 0.0000 -0.0000 -6.5463 20.5287 -7.3291 2.2666 -0.0000 -0.0000 -24.3391 -6.0519 -2.2828 10.5450 0.0000 -0.0000 -12.3183 -18.0639 9.8518 12.4959 -0.0000 0.0000
 4.5689 36.3821 -1.7959 80.5598 -67.0686 82.5680 -18.2514 2.7709 -0.9141 6.6209 12.1679 0.5772 9.1412 11.1322 27.4943 -40.3784 12.1401 -33.0866 -7.2842 0.0000 10.6709 2.2644 11.8483 -10.9008 33.1476 -0.0000 26.2537 40.2573 -30.4548 -7.9600 -68.7513 4.4780 39.4627 2.7791 -0.0000 -6.6959 -0.0855 0.7981 6.1116 32.8623 0.0000 -24.3270 -36.9077 29.7560 6.0074 26.1938 0.0000 0.0000 -6.7666 20.4847 -6.6566 2.0727 -0.0000 0.0000 -24.3514 -6.1952 -2.3013 10.5675 0.0000 -0.0000 -12.3459 -18.2253 9.8776 12.4584 -0.0000 0.0000
 4.5519 36.3794 -1.7391 79.9047 -66.9483 81.7968 -18.4235 2.6700 -0.8902 6.5980 12.2143 0.6271 9.2258 11.1744 27.5142 -40.4879 12.1203 -33.0993 -7.2435 0.0000 10.9224 2.3007 11.7876 -11.1265 33.1476 -0.0000 26.2537 40.4040 -30.4344 -7.8266 -68.6907 4.4678 39.5739 2.7669 -0.0000 -6.6970 -0.0784 0.7280 6.1459 32.8623 0.0000 -24.3270 -36.7096 29.9423 5.7432 25.6693 -0.0000 0.0000 -6.8774 20.4964 -6.0827 1.9941 -0.0000 0.0000 -24.4029 -6.3460 -2.3424 10.6417 0.0000 -0.0000 -12.3781 -18.3873 9.9237 12.3732 0.0000 -0.0000
 4.5357 36.3767 -1.6819 79.2793 -66.7946 81.0459 -18.6256 2.5996 -0.8575 6.5657 12.2150 0.6673 9.1458 11.1030 27.5504 -40.3513 12.0633 -33.0862 -7.2439 0.0000 10.8971 2.2881 11.7033 -11.1434 33.1476 -0.0000 26.2537 40.5516 -30.4578 -7.6633 -68.5963 4.4859 39.6965 2.8073 -0.0000 -6.6765 -0.0794 0.7175 6.3121 32.8623 0.0000 -24.3270 -36.5246 30.0090 5.4656 25.1368 -0.0000 -0.0000 -6.9671 20.6249 -5.6555 3.2357 0.0000 0.0000 -24.4818 -6.4452 -2.3743 10.7102 -0.0000 0.0000 -12.4038 -18.5908 9.9706 12.3661 0.0000 -0.0000
 4.5177 36.3735 -1.6199 78.6126 -66.6724 80.2719 -18.7758 2.5651 -0.8550 6.5056 12.1873 0.7321 9.1549 11.0877 27.6000 -40.3348 11.9756 -33.1370 -7.2498 0.0000 10.8484 2.2854 11.4736 -11.3448 33.1476 -0.0000 26.2537 40.7034 -30.5000 -7.4613 -68.4908 4.5161 39.8097 2.8163 -0.0000 -6.6805 -0.0877 0.8022 6.2390 32.8623 0.0000 -24.3270 -36.2459 29.9439 5.1311 24.5659 0.0000 -0.0000 -7.1286 20.7580 -5.2942 4.4479 -0.0000 -0.0000 -24.5415 -6.5356 -2.4308 10.8218 0.0000 0.0000 -12.4442 -18.8080 10.0281 12.3390 0.0000 -0.0000
